<svg xmlns="http://www.w3.org/2000/svg" width="1390" height="895" viewBox="0 0 1390 895">
<rect width="100%" height="100%" fill="#fff"/>
<polygon points="128.0,655.2 1110.4,655.2 1134.3,134.2 359.9,128.0" fill="#9caf5a" stroke="#3d4a1c" stroke-width="2"/>
<polygon points="275.1,559.2 1018.7,559.2 1033.8,229.4 422.4,224.5" fill="none" stroke="#c0392b" stroke-width="1.5" stroke-dasharray="6 4"/>
<polygon points="681.5,239.2 1129.5,239.2 1134.3,134.2 681.5,130.6" fill="#bdbdbd" stroke="#555" stroke-width="1.5"/>
<defs><marker id="arr" viewBox="0 0 10 10" refX="5" refY="5" markerWidth="7" markerHeight="7" orient="auto-start-reverse"><path d="M0,0 L10,5 L0,10 z" fill="#0b5cad"/></marker></defs>
<polygon points="1020.8,367.2 1124.5,367.2 1124.5,328.8 1020.8,328.8" fill="#d9d4c7" stroke="#9a927e" stroke-width="1"/>
<text x="1092.5" y="317.6" font-size="9" text-anchor="middle" font-family="sans-serif" fill="#4a4434" font-weight="bold">калитка</text>
<circle cx="550.4" cy="610.4" r="19.2" fill="#5f8a3a" stroke="#3d5e22" stroke-width="1" opacity="0.9"/>
<circle cx="601.6" cy="610.4" r="19.2" fill="#5f8a3a" stroke="#3d5e22" stroke-width="1" opacity="0.9"/>
<circle cx="652.8" cy="610.4" r="19.2" fill="#5f8a3a" stroke="#3d5e22" stroke-width="1" opacity="0.9"/>
<circle cx="544.0" cy="181.6" r="19.2" fill="#5f8a3a" stroke="#3d5e22" stroke-width="1" opacity="0.9"/>
<circle cx="595.2" cy="181.6" r="19.2" fill="#5f8a3a" stroke="#3d5e22" stroke-width="1" opacity="0.9"/>
<circle cx="646.4" cy="181.6" r="19.2" fill="#5f8a3a" stroke="#3d5e22" stroke-width="1" opacity="0.9"/>
<polygon points="758.4,645.6 1100.8,645.6 1100.8,488.8 758.4,488.8" fill="#5a9e6f" stroke="#ffffff" stroke-width="2"/>
<polygon points="771.2,632.8 1088.0,632.8 1088.0,501.6 771.2,501.6" fill="none" stroke="#ffffff" stroke-width="1.2"/>
<line x1="929.6" y1="645.6" x2="929.6" y2="488.8" stroke="#ffffff" stroke-width="3" stroke-dasharray="3 2"/>
<text x="929.6" y="535.2" font-size="11" text-anchor="middle" font-family="sans-serif" fill="#fff" font-weight="bold" stroke="#5a9e6f" stroke-width="4" paint-order="stroke">СПОРТПЛОЩАДКА</text>
<text x="929.6" y="556.0" font-size="10" text-anchor="middle" font-family="sans-serif" fill="#fff" stroke="#5a9e6f" stroke-width="4" paint-order="stroke">10.7×4.9 м</text>
<text x="929.6" y="596.0" font-size="9" text-anchor="middle" font-family="sans-serif" fill="#fff" stroke="#5a9e6f" stroke-width="4" paint-order="stroke">бадминтон · волейбол</text>
<text x="929.6" y="615.2" font-size="9" text-anchor="middle" font-family="sans-serif" fill="#fff" stroke="#5a9e6f" stroke-width="4" paint-order="stroke">турник · батут</text>
<polygon points="355.2,456.8 460.8,456.8 460.8,271.2 355.2,271.2" fill="#e9e1cf" stroke="#b8ab8a" stroke-width="1"/>
<polygon points="368.0,444.0 448.0,444.0 448.0,284.0 368.0,284.0" fill="#5bb8e6" stroke="#1f7fb0" stroke-width="2"/>
<text x="408.0" y="354.4" font-size="10" text-anchor="middle" font-family="sans-serif" fill="#fff" font-weight="bold">бассейн</text>
<text x="408.0" y="376.8" font-size="9" text-anchor="middle" font-family="sans-serif" fill="#fff">2.5×5 м</text>
<circle cx="416.0" cy="504.8" r="41.6" fill="#c9a36b" stroke="#6b4f1d" stroke-width="1"/>
<circle cx="416.0" cy="504.8" r="32.0" fill="#7fd0e8" stroke="#1f7fb0" stroke-width="2"/>
<text x="416.0" y="501.6" font-size="10" text-anchor="middle" font-family="sans-serif" font-weight="bold" fill="#0d3b52">купель</text>
<text x="416.0" y="520.8" font-size="9" text-anchor="middle" font-family="sans-serif" fill="#0d3b52">Ø2 м</text>
<polygon points="307.2,642.4 371.2,642.4 371.2,578.4 307.2,578.4" fill="#f1d98a" stroke="#a8893a" stroke-width="1.5"/>
<text x="339.2" y="607.2" font-size="9" text-anchor="middle" font-family="sans-serif" font-weight="bold">песочница</text>
<text x="339.2" y="626.4" font-size="9" text-anchor="middle" font-family="sans-serif" >2×2 м</text>
<polygon points="198.4,642.4 288.0,642.4 288.0,575.2 198.4,575.2" fill="#f4c7a1" stroke="#b0703a" stroke-width="1.5"/>
<text x="243.2" y="605.6" font-size="9" text-anchor="middle" font-family="sans-serif" font-weight="bold">качели / горка</text>
<text x="243.2" y="624.8" font-size="9" text-anchor="middle" font-family="sans-serif" >детская зона</text>
<polygon points="972.8,479.2 1020.8,479.2 1020.8,239.2 972.8,239.2" fill="#c9a36b" stroke="#6b4f1d" stroke-width="1.5"/>
<text x="996.8" y="284.0" font-size="9" text-anchor="middle" font-family="sans-serif" >терраса</text>
<text x="996.8" y="306.4" font-size="9" text-anchor="middle" font-family="sans-serif" >1.5×7.5 м</text>
<text x="996.8" y="325.6" font-size="9" text-anchor="middle" font-family="sans-serif" >11.2 м²</text>
<polygon points="460.8,559.2 524.8,559.2 524.8,239.2 460.8,239.2" fill="#c9a36b" stroke="#6b4f1d" stroke-width="1.5"/>
<text x="492.8" y="284.0" font-size="9" text-anchor="middle" font-family="sans-serif" >терраса</text>
<text x="492.8" y="306.4" font-size="9" text-anchor="middle" font-family="sans-serif" >2×10 м</text>
<text x="492.8" y="325.6" font-size="9" text-anchor="middle" font-family="sans-serif" >20.0 м²</text>
<polygon points="524.8,559.2 748.8,559.2 748.8,479.2 972.8,479.2 972.8,239.2 524.8,239.2" fill="#f3e6c8" stroke="#6b4f1d" stroke-width="3"/>
<polygon points="524.8,559.2 640.0,559.2 640.0,408.8 524.8,408.8" fill="#cfe0f3" stroke="#6b4f1d" stroke-width="1.2"/>
<polygon points="640.0,479.2 748.8,479.2 748.8,408.8 640.0,408.8" fill="#e6e0f0" stroke="#6b4f1d" stroke-width="1.2"/>
<polygon points="640.0,559.2 748.8,559.2 748.8,479.2 640.0,479.2" fill="#d6f0ee" stroke="#6b4f1d" stroke-width="1.2"/>
<polygon points="524.8,408.8 748.8,408.8 748.8,367.2 524.8,367.2" fill="#eeeeee" stroke="#6b4f1d" stroke-width="1.2"/>
<polygon points="524.8,367.2 640.0,367.2 640.0,239.2 524.8,239.2" fill="#dfe9f5" stroke="#6b4f1d" stroke-width="1.2"/>
<polygon points="640.0,367.2 748.8,367.2 748.8,239.2 640.0,239.2" fill="#f6e0ea" stroke="#6b4f1d" stroke-width="1.2"/>
<polygon points="748.8,408.8 828.8,408.8 828.8,335.2 748.8,335.2" fill="#eeeeee" stroke="#6b4f1d" stroke-width="1.2"/>
<polygon points="748.8,479.2 828.8,479.2 828.8,408.8 748.8,408.8" fill="#d6f0ee" stroke="#6b4f1d" stroke-width="1.2"/>
<polygon points="748.8,335.2 972.8,335.2 972.8,239.2 748.8,239.2" fill="#fde7c4" stroke="#6b4f1d" stroke-width="1.2"/>
<polygon points="828.8,479.2 972.8,479.2 972.8,335.2 828.8,335.2" fill="#fbf1d6" stroke="#6b4f1d" stroke-width="1.2"/>
<polygon points="524.8,559.2 748.8,559.2 748.8,479.2 972.8,479.2 972.8,239.2 524.8,239.2" fill="none" stroke="#6b4f1d" stroke-width="3"/>
<text x="582.4" y="479.2" font-size="11" text-anchor="middle" font-family="sans-serif" font-weight="bold">Мастер-спальня</text>
<text x="582.4" y="498.4" font-size="10" text-anchor="middle" font-family="sans-serif" >16.9 м²</text>
<text x="694.4" y="439.2" font-size="9" text-anchor="middle" font-family="sans-serif" font-weight="bold">Гардеробная</text>
<text x="694.4" y="458.4" font-size="8" text-anchor="middle" font-family="sans-serif" >7.5 м²</text>
<text x="694.4" y="514.4" font-size="9" text-anchor="middle" font-family="sans-serif" font-weight="bold">С/у мастер</text>
<text x="694.4" y="533.6" font-size="8" text-anchor="middle" font-family="sans-serif" >8.5 м²</text>
<text x="636.8" y="383.2" font-size="9" text-anchor="middle" font-family="sans-serif" font-weight="bold">Коридор</text>
<text x="636.8" y="402.4" font-size="8" text-anchor="middle" font-family="sans-serif" >9.1 м²</text>
<text x="582.4" y="298.4" font-size="11" text-anchor="middle" font-family="sans-serif" font-weight="bold">Спальня</text>
<text x="582.4" y="317.6" font-size="10" text-anchor="middle" font-family="sans-serif" >14.4 м²</text>
<text x="694.4" y="298.4" font-size="11" text-anchor="middle" font-family="sans-serif" font-weight="bold">Детская</text>
<text x="694.4" y="317.6" font-size="10" text-anchor="middle" font-family="sans-serif" >13.6 м²</text>
<text x="788.8" y="367.2" font-size="9" text-anchor="middle" font-family="sans-serif" font-weight="bold">Холл</text>
<text x="788.8" y="386.4" font-size="8" text-anchor="middle" font-family="sans-serif" >5.8 м²</text>
<text x="788.8" y="439.2" font-size="9" text-anchor="middle" font-family="sans-serif" font-weight="bold">Санузел</text>
<text x="788.8" y="458.4" font-size="8" text-anchor="middle" font-family="sans-serif" >5.5 м²</text>
<text x="860.8" y="282.4" font-size="11" text-anchor="middle" font-family="sans-serif" font-weight="bold">Кухня-столовая</text>
<text x="860.8" y="301.6" font-size="10" text-anchor="middle" font-family="sans-serif" >21.0 м²</text>
<text x="900.8" y="402.4" font-size="11" text-anchor="middle" font-family="sans-serif" font-weight="bold">Гостиная</text>
<text x="900.8" y="421.6" font-size="10" text-anchor="middle" font-family="sans-serif" >20.2 м²</text>
<circle cx="972.8" cy="360.8" r="5" fill="#c0392b"/>
<text x="996.8" y="399.2" font-size="10" text-anchor="middle" font-family="sans-serif" fill="#c0392b" font-weight="bold">вход</text>
<circle cx="524.8" cy="383.2" r="5" fill="#c0392b"/>
<text x="492.8" y="423.2" font-size="10" text-anchor="middle" font-family="sans-serif" fill="#c0392b" font-weight="bold">в сад</text>
<line x1="460.8" y1="557.6" x2="170.9" y2="557.6" stroke="#0b5cad" stroke-width="1.6" marker-start="url(#arr)" marker-end="url(#arr)"/>
<rect x="297.1" y="537.6" width="38" height="16" rx="3" fill="#fff" opacity="0.85"/><text x="315.9" y="550.6" font-size="12" font-weight="bold" fill="#0b5cad" text-anchor="middle" font-family="sans-serif">9.1 м</text>
<line x1="460.8" y1="248.8" x2="306.8" y2="248.8" stroke="#0b5cad" stroke-width="1.6" marker-start="url(#arr)" marker-end="url(#arr)"/>
<rect x="365.0" y="228.8" width="38" height="16" rx="3" fill="#fff" opacity="0.85"/><text x="383.8" y="241.8" font-size="12" font-weight="bold" fill="#0b5cad" text-anchor="middle" font-family="sans-serif">4.8 м</text>
<line x1="697.6" y1="559.2" x2="697.6" y2="655.2" stroke="#0b5cad" stroke-width="1.6" marker-start="url(#arr)" marker-end="url(#arr)"/>
<rect x="701.6" y="598.2" width="38" height="16" rx="3" fill="#fff" opacity="0.85"/><text x="705.6" y="611.2" font-size="12" font-weight="bold" fill="#0b5cad" font-family="sans-serif">3.0 м</text>
<line x1="697.6" y1="239.2" x2="697.6" y2="130.7" stroke="#0b5cad" stroke-width="1.6" marker-start="url(#arr)" marker-end="url(#arr)"/>
<rect x="701.6" y="176.0" width="38" height="16" rx="3" fill="#fff" opacity="0.85"/><text x="705.6" y="189.0" font-size="12" font-weight="bold" fill="#0b5cad" font-family="sans-serif">3.4 м</text>
<line x1="1020.8" y1="271.2" x2="1128.0" y2="271.2" stroke="#0b5cad" stroke-width="1.6" marker-start="url(#arr)" marker-end="url(#arr)"/>
<rect x="1055.7" y="251.2" width="38" height="16" rx="3" fill="#fff" opacity="0.85"/><text x="1074.4" y="264.2" font-size="12" font-weight="bold" fill="#0b5cad" text-anchor="middle" font-family="sans-serif">3.4 м</text>
<text x="906.7" y="168.2" font-size="13" text-anchor="middle" font-family="sans-serif" font-weight="bold">P · 2 авто друг за другом</text>
<text x="906.7" y="192.2" font-size="11" text-anchor="middle" font-family="sans-serif" >14×3.3 м · 47.0 м²</text>
<text x="906.7" y="213.0" font-size="10" text-anchor="middle" font-family="sans-serif" >2 места по 7 м · бетон от забора до стены дома</text>
<text x="619.2" y="684.0" font-size="14" text-anchor="middle" font-family="sans-serif" fill="#8a5a00">30.7 м · ЮГ (солнце днём)</text>
<text x="747.1" y="111.9" font-size="14" text-anchor="middle" font-family="sans-serif" >24.2 м · СЕВЕР</text>
<text x="214.0" y="391.6" font-size="14" text-anchor="middle" font-family="sans-serif">18.0 м</text>
<text x="1160.4" y="394.7" font-size="14" text-anchor="middle" font-family="sans-serif">16.3 м</text><text x="1197.4" y="394.7" font-size="15" font-weight="bold" text-anchor="middle" font-family="sans-serif" transform="rotate(-90 1197.4 394.7)">ул. 1905 года · ВОСТОК</text>
<line x1="1129.5" y1="239.2" x2="1134.3" y2="134.2" stroke="#333" stroke-width="5"/>
<line x1="1209.5" y1="186.7" x2="1113.5" y2="186.7" stroke="#222" stroke-width="2.5"/><circle cx="1113.5" cy="186.7" r="4"/>
<text x="1174.3" y="177.1" font-size="10" text-anchor="middle" font-family="sans-serif" fill="#222" font-weight="bold">ворота</text>
<text x="300.8" y="367.2" font-size="14" text-anchor="middle" font-family="sans-serif" fill="#2f3b12" font-style="italic">газон</text>
<text x="601.6" y="640.8" font-size="9" text-anchor="middle" font-family="sans-serif" fill="#2f3b12" font-style="italic">кустарник / живая изгородь</text>
<g transform="rotate(-4.6 70 80)"><circle cx="70" cy="80" r="34" fill="#fff" stroke="#333" stroke-width="1.5"/><path d="M70,50 L79,86 L70,80 L61,86 z" fill="#c0392b"/><path d="M70,110 L79,74 L70,80 L61,74 z" fill="#999"/><text x="70" y="42" font-size="16" font-weight="bold" text-anchor="middle" font-family="sans-serif">С</text></g>
<text x="160.0" y="85.6" font-size="12" fill="#5a2d82" font-weight="bold" font-family="sans-serif">↖ ж/д МЦД-1 (Баковка) ≈50 м — шум</text>
<text x="96.4" y="367.2" font-size="12" fill="#1f7fb0" font-weight="bold" text-anchor="middle" font-family="sans-serif" transform="rotate(-66 96.4 367.2)">ЗАПАД · ручей ≈10–20 м · вечернее солнце</text>
<text x="1094.4" y="693.6" font-size="12" fill="#555" font-family="sans-serif">↘ Минское ш. ≈100 м</text>
<rect x="20" y="796.239654221947" width="28" height="0" stroke="#c0392b" stroke-dasharray="6 4" stroke-width="1.5"/>
<line x1="20" y1="803.239654221947" x2="50" y2="803.239654221947" stroke="#c0392b" stroke-dasharray="6 4" stroke-width="1.5"/>
<text x="58" y="808.239654221947" font-size="13" font-family="sans-serif">граница пятна застройки: отступ 3 м от всех границ</text>
<text x="20" y="832.239654221947" font-size="13" font-family="sans-serif">участок ≈450 м² · дом 122.5 м² (7 модулей DP-Module) · террасы 31 м² · парковка 47 м² · двор/сад ≈249 м², из них задний двор ≈112 м²</text>
<text x="20" y="778.239654221947" font-size="14" font-weight="bold" font-family="sans-serif">ИЖС, Одинцово, ул. 1905 года · ПЗЗ (обычно для ИЖС в МО): отступ 3 м, застройка ≤40% → дом 27%, с террасами 34% (уточнить по ГПЗУ)</text>
<text x="20" y="854.239654221947" font-size="13" fill="#0b5cad" font-family="sans-serif">синие размеры — расстояние от стены дома / края террасы до забора</text>
<text x="20" y="876.239654221947" font-size="13" fill="#555" font-family="sans-serif">зеркальный вариант: мастер-блок с южной стороны, жилая зона у дороги · парковка: 2 авто друг за другом вдоль северного забора, бетон от забора до дома, въезд через ворота · детская зона в юго-западном углу</text>
</svg>