<svg xmlns="http://www.w3.org/2000/svg" width="1390" height="895" viewBox="0 0 1390 895">
<rect width="100%" height="100%" fill="#fff"/>
<polygon points="128.0,655.2 1110.4,655.2 1134.3,134.2 359.9,128.0" fill="#9caf5a" stroke="#3d4a1c" stroke-width="2"/>
<polygon points="275.1,559.2 1018.7,559.2 1033.8,229.4 422.4,224.5" fill="none" stroke="#c0392b" stroke-width="1.5" stroke-dasharray="6 4"/>
<defs><marker id="arr" viewBox="0 0 10 10" refX="5" refY="5" markerWidth="7" markerHeight="7" orient="auto-start-reverse"><path d="M0,0 L10,5 L0,10 z" fill="#0b5cad"/></marker></defs>
<polygon points="1020.8,357.6 1124.9,357.6 1124.9,319.2 1020.8,319.2" fill="#d9d4c7" stroke="#9a927e" stroke-width="1"/>
<text x="1092.9" y="308.0" font-size="9" text-anchor="middle" font-family="sans-serif" fill="#4a4434" font-weight="bold">калитка</text>
<circle cx="236.8" cy="610.4" r="19.2" fill="#5f8a3a" stroke="#3d5e22" stroke-width="1" opacity="0.9"/>
<circle cx="288.0" cy="610.4" r="19.2" fill="#5f8a3a" stroke="#3d5e22" stroke-width="1" opacity="0.9"/>
<circle cx="339.2" cy="610.4" r="19.2" fill="#5f8a3a" stroke="#3d5e22" stroke-width="1" opacity="0.9"/>
<circle cx="572.8" cy="172.0" r="19.2" fill="#5f8a3a" stroke="#3d5e22" stroke-width="1" opacity="0.9"/>
<circle cx="624.0" cy="172.0" r="19.2" fill="#5f8a3a" stroke="#3d5e22" stroke-width="1" opacity="0.9"/>
<circle cx="675.2" cy="172.0" r="19.2" fill="#5f8a3a" stroke="#3d5e22" stroke-width="1" opacity="0.9"/>
<circle cx="1062.4" cy="178.4" r="19.2" fill="#5f8a3a" stroke="#3d5e22" stroke-width="1" opacity="0.9"/>
<polygon points="758.4,645.6 1100.8,645.6 1100.8,479.2 758.4,479.2" fill="#5a9e6f" stroke="#ffffff" stroke-width="2"/>
<polygon points="771.2,632.8 1088.0,632.8 1088.0,492.0 771.2,492.0" fill="none" stroke="#ffffff" stroke-width="1.2"/>
<line x1="929.6" y1="645.6" x2="929.6" y2="479.2" stroke="#ffffff" stroke-width="3" stroke-dasharray="3 2"/>
<text x="929.6" y="530.4" font-size="11" text-anchor="middle" font-family="sans-serif" fill="#fff" font-weight="bold" stroke="#5a9e6f" stroke-width="4" paint-order="stroke">СПОРТПЛОЩАДКА</text>
<text x="929.6" y="551.2" font-size="10" text-anchor="middle" font-family="sans-serif" fill="#fff" stroke="#5a9e6f" stroke-width="4" paint-order="stroke">10.7×5.2 м</text>
<text x="929.6" y="591.2" font-size="9" text-anchor="middle" font-family="sans-serif" fill="#fff" stroke="#5a9e6f" stroke-width="4" paint-order="stroke">бадминтон · волейбол</text>
<text x="929.6" y="610.4" font-size="9" text-anchor="middle" font-family="sans-serif" fill="#fff" stroke="#5a9e6f" stroke-width="4" paint-order="stroke">турник · батут</text>
<polygon points="355.2,447.2 460.8,447.2 460.8,261.6 355.2,261.6" fill="#e9e1cf" stroke="#b8ab8a" stroke-width="1"/>
<polygon points="368.0,434.4 448.0,434.4 448.0,274.4 368.0,274.4" fill="#5bb8e6" stroke="#1f7fb0" stroke-width="2"/>
<text x="408.0" y="344.8" font-size="10" text-anchor="middle" font-family="sans-serif" fill="#fff" font-weight="bold">бассейн</text>
<text x="408.0" y="367.2" font-size="9" text-anchor="middle" font-family="sans-serif" fill="#fff">2.5×5 м</text>
<circle cx="416.0" cy="495.2" r="41.6" fill="#c9a36b" stroke="#6b4f1d" stroke-width="1"/>
<circle cx="416.0" cy="495.2" r="32.0" fill="#7fd0e8" stroke="#1f7fb0" stroke-width="2"/>
<text x="416.0" y="492.0" font-size="10" text-anchor="middle" font-family="sans-serif" font-weight="bold" fill="#0d3b52">купель</text>
<text x="416.0" y="511.2" font-size="9" text-anchor="middle" font-family="sans-serif" fill="#0d3b52">Ø2 м</text>
<polygon points="780.8,213.6 844.8,213.6 844.8,149.6 780.8,149.6" fill="#f1d98a" stroke="#a8893a" stroke-width="1.5"/>
<text x="812.8" y="178.4" font-size="9" text-anchor="middle" font-family="sans-serif" font-weight="bold">песочница</text>
<text x="812.8" y="197.6" font-size="9" text-anchor="middle" font-family="sans-serif" >2×2 м</text>
<polygon points="864.0,213.6 953.6,213.6 953.6,146.4 864.0,146.4" fill="#f4c7a1" stroke="#b0703a" stroke-width="1.5"/>
<text x="908.8" y="176.8" font-size="9" text-anchor="middle" font-family="sans-serif" font-weight="bold">качели / горка</text>
<text x="908.8" y="196.0" font-size="9" text-anchor="middle" font-family="sans-serif" >детская зона</text>
<polygon points="972.8,469.6 1020.8,469.6 1020.8,229.6 972.8,229.6" fill="#c9a36b" stroke="#6b4f1d" stroke-width="1.5"/>
<text x="996.8" y="274.4" font-size="9" text-anchor="middle" font-family="sans-serif" >терраса</text>
<text x="996.8" y="296.8" font-size="9" text-anchor="middle" font-family="sans-serif" >1.5×7.5 м</text>
<text x="996.8" y="316.0" font-size="9" text-anchor="middle" font-family="sans-serif" >11.2 м²</text>
<polygon points="460.8,549.6 524.8,549.6 524.8,229.6 460.8,229.6" fill="#c9a36b" stroke="#6b4f1d" stroke-width="1.5"/>
<text x="492.8" y="274.4" font-size="9" text-anchor="middle" font-family="sans-serif" >терраса</text>
<text x="492.8" y="296.8" font-size="9" text-anchor="middle" font-family="sans-serif" >2×10 м</text>
<text x="492.8" y="316.0" font-size="9" text-anchor="middle" font-family="sans-serif" >20.0 м²</text>
<polygon points="524.8,549.6 748.8,549.6 748.8,469.6 972.8,469.6 972.8,229.6 524.8,229.6" fill="#f3e6c8" stroke="#6b4f1d" stroke-width="3"/>
<polygon points="524.8,549.6 640.0,549.6 640.0,399.2 524.8,399.2" fill="#cfe0f3" stroke="#6b4f1d" stroke-width="1.2"/>
<polygon points="640.0,469.6 748.8,469.6 748.8,399.2 640.0,399.2" fill="#e6e0f0" stroke="#6b4f1d" stroke-width="1.2"/>
<polygon points="640.0,549.6 748.8,549.6 748.8,469.6 640.0,469.6" fill="#d6f0ee" stroke="#6b4f1d" stroke-width="1.2"/>
<polygon points="524.8,399.2 748.8,399.2 748.8,357.6 524.8,357.6" fill="#eeeeee" stroke="#6b4f1d" stroke-width="1.2"/>
<polygon points="524.8,357.6 640.0,357.6 640.0,229.6 524.8,229.6" fill="#dfe9f5" stroke="#6b4f1d" stroke-width="1.2"/>
<polygon points="640.0,357.6 748.8,357.6 748.8,229.6 640.0,229.6" fill="#f6e0ea" stroke="#6b4f1d" stroke-width="1.2"/>
<polygon points="748.8,399.2 828.8,399.2 828.8,325.6 748.8,325.6" fill="#eeeeee" stroke="#6b4f1d" stroke-width="1.2"/>
<polygon points="748.8,469.6 828.8,469.6 828.8,399.2 748.8,399.2" fill="#d6f0ee" stroke="#6b4f1d" stroke-width="1.2"/>
<polygon points="748.8,325.6 972.8,325.6 972.8,229.6 748.8,229.6" fill="#fde7c4" stroke="#6b4f1d" stroke-width="1.2"/>
<polygon points="828.8,469.6 972.8,469.6 972.8,325.6 828.8,325.6" fill="#fbf1d6" stroke="#6b4f1d" stroke-width="1.2"/>
<polygon points="524.8,549.6 748.8,549.6 748.8,469.6 972.8,469.6 972.8,229.6 524.8,229.6" fill="none" stroke="#6b4f1d" stroke-width="3"/>
<text x="582.4" y="469.6" font-size="11" text-anchor="middle" font-family="sans-serif" font-weight="bold">Мастер-спальня</text>
<text x="582.4" y="488.8" font-size="10" text-anchor="middle" font-family="sans-serif" >16.9 м²</text>
<text x="694.4" y="429.6" font-size="9" text-anchor="middle" font-family="sans-serif" font-weight="bold">Гардеробная</text>
<text x="694.4" y="448.8" font-size="8" text-anchor="middle" font-family="sans-serif" >7.5 м²</text>
<text x="694.4" y="504.8" font-size="9" text-anchor="middle" font-family="sans-serif" font-weight="bold">С/у мастер</text>
<text x="694.4" y="524.0" font-size="8" text-anchor="middle" font-family="sans-serif" >8.5 м²</text>
<text x="636.8" y="373.6" font-size="9" text-anchor="middle" font-family="sans-serif" font-weight="bold">Коридор</text>
<text x="636.8" y="392.8" font-size="8" text-anchor="middle" font-family="sans-serif" >9.1 м²</text>
<text x="582.4" y="288.8" font-size="11" text-anchor="middle" font-family="sans-serif" font-weight="bold">Спальня</text>
<text x="582.4" y="308.0" font-size="10" text-anchor="middle" font-family="sans-serif" >14.4 м²</text>
<text x="694.4" y="288.8" font-size="11" text-anchor="middle" font-family="sans-serif" font-weight="bold">Детская</text>
<text x="694.4" y="308.0" font-size="10" text-anchor="middle" font-family="sans-serif" >13.6 м²</text>
<text x="788.8" y="357.6" font-size="9" text-anchor="middle" font-family="sans-serif" font-weight="bold">Холл</text>
<text x="788.8" y="376.8" font-size="8" text-anchor="middle" font-family="sans-serif" >5.8 м²</text>
<text x="788.8" y="429.6" font-size="9" text-anchor="middle" font-family="sans-serif" font-weight="bold">Санузел</text>
<text x="788.8" y="448.8" font-size="8" text-anchor="middle" font-family="sans-serif" >5.5 м²</text>
<text x="860.8" y="272.8" font-size="11" text-anchor="middle" font-family="sans-serif" font-weight="bold">Кухня-столовая</text>
<text x="860.8" y="292.0" font-size="10" text-anchor="middle" font-family="sans-serif" >21.0 м²</text>
<text x="900.8" y="392.8" font-size="11" text-anchor="middle" font-family="sans-serif" font-weight="bold">Гостиная</text>
<text x="900.8" y="412.0" font-size="10" text-anchor="middle" font-family="sans-serif" >20.2 м²</text>
<circle cx="972.8" cy="351.2" r="5" fill="#c0392b"/>
<text x="996.8" y="389.6" font-size="10" text-anchor="middle" font-family="sans-serif" fill="#c0392b" font-weight="bold">вход</text>
<circle cx="524.8" cy="378.4" r="5" fill="#c0392b"/>
<text x="492.8" y="418.4" font-size="10" text-anchor="middle" font-family="sans-serif" fill="#c0392b" font-weight="bold">в сад</text>
<line x1="460.8" y1="548.0" x2="175.2" y2="548.0" stroke="#0b5cad" stroke-width="1.6" marker-start="url(#arr)" marker-end="url(#arr)"/>
<rect x="299.2" y="552.0" width="38" height="16" rx="3" fill="#fff" opacity="0.85"/><text x="318.0" y="565.0" font-size="12" font-weight="bold" fill="#0b5cad" text-anchor="middle" font-family="sans-serif">8.9 м</text>
<line x1="460.8" y1="239.2" x2="311.0" y2="239.2" stroke="#0b5cad" stroke-width="1.6" marker-start="url(#arr)" marker-end="url(#arr)"/>
<rect x="367.2" y="219.2" width="38" height="16" rx="3" fill="#fff" opacity="0.85"/><text x="385.9" y="232.2" font-size="12" font-weight="bold" fill="#0b5cad" text-anchor="middle" font-family="sans-serif">4.7 м</text>
<line x1="652.8" y1="549.6" x2="652.8" y2="655.2" stroke="#0b5cad" stroke-width="1.6" marker-start="url(#arr)" marker-end="url(#arr)"/>
<rect x="656.8" y="593.4" width="38" height="16" rx="3" fill="#fff" opacity="0.85"/><text x="660.8" y="606.4" font-size="12" font-weight="bold" fill="#0b5cad" font-family="sans-serif">3.3 м</text>
<line x1="723.2" y1="229.6" x2="723.2" y2="130.9" stroke="#0b5cad" stroke-width="1.6" marker-start="url(#arr)" marker-end="url(#arr)"/>
<rect x="727.2" y="171.3" width="38" height="16" rx="3" fill="#fff" opacity="0.85"/><text x="731.2" y="184.3" font-size="12" font-weight="bold" fill="#0b5cad" font-family="sans-serif">3.1 м</text>
<line x1="1020.8" y1="261.6" x2="1128.5" y2="261.6" stroke="#0b5cad" stroke-width="1.6" marker-start="url(#arr)" marker-end="url(#arr)"/>
<rect x="1055.9" y="241.6" width="38" height="16" rx="3" fill="#fff" opacity="0.85"/><text x="1074.6" y="254.6" font-size="12" font-weight="bold" fill="#0b5cad" text-anchor="middle" font-family="sans-serif">3.4 м</text>
<text x="619.2" y="684.0" font-size="14" text-anchor="middle" font-family="sans-serif" fill="#8a5a00">30.7 м · ЮГ (солнце днём)</text>
<text x="747.1" y="111.9" font-size="14" text-anchor="middle" font-family="sans-serif" >24.2 м · СЕВЕР</text>
<text x="214.0" y="391.6" font-size="14" text-anchor="middle" font-family="sans-serif">18.0 м</text>
<text x="1160.4" y="394.7" font-size="14" text-anchor="middle" font-family="sans-serif">16.3 м</text><text x="1197.4" y="394.7" font-size="15" font-weight="bold" text-anchor="middle" font-family="sans-serif" transform="rotate(-90 1197.4 394.7)">ул. 1905 года · ВОСТОК</text>
<text x="252.8" y="578.4" font-size="14" text-anchor="middle" font-family="sans-serif" fill="#2f3b12" font-style="italic">газон</text>
<text x="403.2" y="640.8" font-size="9" text-anchor="middle" font-family="sans-serif" fill="#2f3b12" font-style="italic">кустарник / живая изгородь</text>
<g transform="rotate(-4.6 70 80)"><circle cx="70" cy="80" r="34" fill="#fff" stroke="#333" stroke-width="1.5"/><path d="M70,50 L79,86 L70,80 L61,86 z" fill="#c0392b"/><path d="M70,110 L79,74 L70,80 L61,74 z" fill="#999"/><text x="70" y="42" font-size="16" font-weight="bold" text-anchor="middle" font-family="sans-serif">С</text></g>
<text x="160.0" y="85.6" font-size="12" fill="#5a2d82" font-weight="bold" font-family="sans-serif">↖ ж/д МЦД-1 (Баковка) ≈50 м — шум</text>
<text x="96.4" y="367.2" font-size="12" fill="#1f7fb0" font-weight="bold" text-anchor="middle" font-family="sans-serif" transform="rotate(-66 96.4 367.2)">ЗАПАД · ручей ≈10–20 м · вечернее солнце</text>
<text x="1094.4" y="693.6" font-size="12" fill="#555" font-family="sans-serif">↘ Минское ш. ≈100 м</text>
<rect x="20" y="796.239654221947" width="28" height="0" stroke="#c0392b" stroke-dasharray="6 4" stroke-width="1.5"/>
<line x1="20" y1="803.239654221947" x2="50" y2="803.239654221947" stroke="#c0392b" stroke-dasharray="6 4" stroke-width="1.5"/>
<text x="58" y="808.239654221947" font-size="13" font-family="sans-serif">граница пятна застройки: отступ 3 м от всех границ</text>
<text x="20" y="832.239654221947" font-size="13" font-family="sans-serif">участок ≈450 м² · дом 122.5 м² (7 модулей DP-Module) · террасы 31 м² · двор/сад ≈296 м², из них задний двор ≈112 м²</text>
<text x="20" y="778.239654221947" font-size="14" font-weight="bold" font-family="sans-serif">ИЖС, Одинцово, ул. 1905 года · ПЗЗ (обычно для ИЖС в МО): отступ 3 м, застройка ≤40% → дом 27%, с террасами 34% (уточнить по ГПЗУ)</text>
<text x="20" y="854.239654221947" font-size="13" fill="#0b5cad" font-family="sans-serif">синие размеры — расстояние от стены дома / края террасы до забора</text>
<text x="20" y="876.239654221947" font-size="13" fill="#555" font-family="sans-serif">зеркальный вариант: доп. модуль (мастер-блок) с южной стороны, жилая зона у дороги, свободная ниша — на юго-востоке · парковка пока не размещена</text>
</svg>